<svg width="425" height="425" viewBox="0 0 425 425" fill="none" xmlns="http://www.w3.org/2000/svg">
<path fill-rule="evenodd" clip-rule="evenodd" d="M112.076 241.477C154.448 283.849 223.147 283.849 265.518 241.477C307.89 199.105 307.89 130.407 265.518 88.0348C223.147 45.6629 154.448 45.6629 112.076 88.0348C69.7044 130.407 69.7044 199.105 112.076 241.477ZM106.419 247.134C151.915 292.63 225.679 292.63 271.175 247.134C316.671 201.638 316.671 127.874 271.175 82.3779C225.679 36.8818 151.916 36.8818 106.419 82.3779C60.9233 127.874 60.9233 201.638 106.419 247.134ZM129.754 216.728C156.505 243.479 199.877 243.479 226.628 216.728C253.378 189.977 253.378 146.605 226.628 119.855C199.877 93.1037 156.505 93.1037 129.754 119.855C103.003 146.605 103.003 189.977 129.754 216.728ZM124.097 222.385C153.972 252.26 202.409 252.26 232.284 222.385C262.16 192.51 262.16 144.073 232.284 114.198C202.409 84.3226 153.972 84.3226 124.097 114.198C94.222 144.073 94.222 192.51 124.097 222.385ZM152.735 330.219C198.817 376.301 273.53 376.301 319.612 330.219C365.694 284.137 365.694 209.424 319.612 163.342C273.53 117.26 198.817 117.26 152.735 163.342C106.653 209.424 106.653 284.137 152.735 330.219ZM147.078 335.876C196.284 385.082 276.063 385.082 325.269 335.876C374.475 286.67 374.475 206.891 325.269 157.685C276.063 108.479 196.284 108.479 147.078 157.685C97.872 206.891 97.872 286.67 147.078 335.876Z" fill="white"/>
</svg>
