<svg width="85" height="85" viewBox="0 0 85 85" fill="none" xmlns="http://www.w3.org/2000/svg">
<path d="M84.4795 42.4897C84.4795 63.2454 69.4184 80.4846 49.6288 83.8767V55.2723H59.0282H59.4573L59.5224 54.8482L61.407 42.5656L61.4954 41.9897H60.9128H49.6288V34.5143C49.6288 32.9072 50.0234 31.3814 50.9898 30.2637C51.9445 29.1595 53.5224 28.3787 56.0522 28.3787H61.4114H61.9114V27.8787V17.4276V17.0057L61.4954 16.9348L61.4114 17.4276C61.4954 16.9348 61.4954 16.9347 61.4953 16.9347L61.495 16.9347L61.4942 16.9346L61.4913 16.9341L61.4801 16.9322L61.4372 16.925C61.3995 16.9188 61.3441 16.9097 61.2722 16.8983C61.1283 16.8753 60.9182 16.8426 60.6517 16.8034C60.119 16.725 59.3607 16.6207 58.4563 16.5163C56.6496 16.3079 54.2507 16.0984 51.8992 16.0984C46.9436 16.0984 42.7927 17.6013 39.8802 20.5169C36.9672 23.433 35.3507 27.7045 35.3507 33.1283V41.9897H25.0569H24.5569V42.4897V54.7723V55.2723H25.0569H35.3507V83.8767C15.561 80.4846 0.5 63.2454 0.5 42.4897C0.5 19.2937 19.2937 0.5 42.4897 0.5C65.6857 0.5 84.4795 19.2937 84.4795 42.4897Z" stroke="#FAF8F8"/>
</svg>
