<svg width="85" height="85" viewBox="0 0 85 85" fill="none" xmlns="http://www.w3.org/2000/svg">
<path d="M84.4795 42.9552C84.4795 63.7109 69.4184 80.9501 49.6288 84.3422V55.7378H59.0282H59.4573L59.5224 55.3137L61.407 43.031L61.4954 42.4552H60.9128H49.6288V34.9798C49.6288 33.3727 50.0234 31.8469 50.9898 30.7291C51.9445 29.625 53.5224 28.8442 56.0522 28.8442H61.4114H61.9114V28.3442V17.8931V17.4712L61.4954 17.4002L61.4114 17.8931C61.4954 17.4002 61.4954 17.4002 61.4953 17.4002L61.495 17.4002L61.4942 17.4L61.4913 17.3995L61.4801 17.3977L61.4372 17.3905C61.3995 17.3843 61.3441 17.3752 61.2722 17.3637C61.1283 17.3408 60.9182 17.3081 60.6517 17.2689C60.119 17.1905 59.3607 17.0861 58.4563 16.9818C56.6496 16.7734 54.2507 16.5639 51.8992 16.5639C46.9436 16.5639 42.7927 18.0668 39.8802 20.9824C36.9672 23.8985 35.3507 28.17 35.3507 33.5938V42.4552H25.0569H24.5569V42.9552V55.2378V55.7378H25.0569H35.3507V84.3422C15.561 80.9501 0.5 63.7109 0.5 42.9552C0.5 19.7592 19.2937 0.965485 42.4897 0.965485C65.6857 0.965485 84.4795 19.7592 84.4795 42.9552Z" fill="#FAF8F8" stroke="#FAF8F8"/>
</svg>
