<svg width="85" height="85" viewBox="0 0 85 85" fill="none" xmlns="http://www.w3.org/2000/svg">
<path d="M52.1254 52.1254C54.7042 49.5467 56.1529 46.0491 56.1529 42.4022C56.1529 41.8206 56.1079 41.2504 56.0274 40.6938H59.5698V57.8481C59.5698 58.3042 59.3889 58.7416 59.0668 59.0643C58.7446 59.3871 58.3076 59.5689 57.8515 59.5698H26.9563C26.0046 59.5698 25.2346 58.7999 25.2346 57.8481V40.6938H28.777C28.6966 41.2504 28.6515 41.8206 28.6515 42.4022C28.6515 46.0491 30.1003 49.5467 32.679 52.1254C35.2578 54.7042 38.7553 56.1529 42.4022 56.1529C46.0491 56.1529 49.5467 54.7042 52.1254 52.1254ZM45.592 50.1007C44.5807 50.5199 43.4968 50.7358 42.4021 50.736C40.1913 50.7366 38.0707 49.8589 36.507 48.2959C34.9434 46.733 34.0646 44.613 34.064 42.4021C34.0635 40.1913 34.9412 38.0707 36.5041 36.507C38.067 34.9434 40.1871 34.0646 42.3979 34.064C43.4926 34.0637 44.5767 34.2791 45.5881 34.6978C46.5996 35.1164 47.5187 35.7302 48.293 36.5041C49.0673 37.278 49.6815 38.1968 50.1007 39.208C50.5199 40.2193 50.7358 41.3032 50.736 42.3979C50.7363 43.4926 50.521 44.5767 50.1023 45.5881C49.6836 46.5996 49.0698 47.5187 48.2959 48.293C47.5221 49.0673 46.6033 49.6815 45.592 50.1007ZM58.2987 32.6267H53.0028C52.5511 32.6267 52.1767 32.2549 52.1733 31.7998V26.5058C52.1733 26.2858 52.2607 26.0748 52.4162 25.9193C52.5718 25.7637 52.7828 25.6763 53.0028 25.6763H58.2986C58.5186 25.6763 58.7296 25.7637 58.8852 25.9193C59.0407 26.0748 59.1281 26.2858 59.1281 26.5058L59.1281 31.8C59.1281 31.8003 59.1281 31.8007 59.1281 31.801C59.1271 32.0201 59.0395 32.23 58.8842 32.3848C58.7287 32.5397 58.5182 32.6267 58.2987 32.6267ZM12.7729 12.7729C20.6311 4.91469 31.2891 0.5 42.4022 0.5C47.9049 0.5 53.3537 1.58383 58.4375 3.68962C63.5213 5.7954 68.1406 8.8819 72.0316 12.7729C75.9226 16.6639 79.0091 21.2831 81.1148 26.3669C83.2206 31.4508 84.3045 36.8996 84.3045 42.4022C84.3045 47.9049 83.2206 53.3537 81.1148 58.4375C79.0091 63.5213 75.9226 68.1406 72.0316 72.0316C68.1406 75.9226 63.5213 79.0091 58.4375 81.1148C53.3537 83.2206 47.9049 84.3045 42.4022 84.3045C31.2891 84.3045 20.6311 79.8898 12.7729 72.0316C4.91469 64.1734 0.5 53.5154 0.5 42.4022C0.5 31.2891 4.91469 20.6311 12.7729 12.7729ZM59.5795 64.9867C62.5544 64.9867 64.9867 62.5544 64.9867 59.5795V25.2249C64.9867 22.25 62.5544 19.8177 59.5795 19.8177H25.2249C22.25 19.8177 19.8177 22.25 19.8177 25.2249V59.5795C19.8177 62.5544 22.25 64.9867 25.2249 64.9867H59.5795Z" stroke="#FAF8F8"/>
</svg>
