<svg width="85" height="86" viewBox="0 0 85 86" fill="none" xmlns="http://www.w3.org/2000/svg">
<path d="M52.1254 52.9299C54.7042 50.3511 56.1529 46.8536 56.1529 43.2067C56.1529 42.625 56.1079 42.0548 56.0274 41.4982H59.5698V58.6526C59.5698 59.1086 59.3889 59.546 59.0668 59.8688C58.7446 60.1916 58.3076 60.3734 57.8515 60.3743H26.9563C26.0046 60.3743 25.2346 59.6043 25.2346 58.6526V41.4982H28.777C28.6966 42.0548 28.6515 42.625 28.6515 43.2067C28.6515 46.8536 30.1003 50.3511 32.679 52.9299C35.2578 55.5087 38.7553 56.9574 42.4022 56.9574C46.0491 56.9574 49.5467 55.5087 52.1254 52.9299ZM45.592 50.9051C44.5807 51.3243 43.4968 51.5402 42.4021 51.5405C40.1913 51.541 38.0707 50.6633 36.507 49.1004C34.9434 47.5375 34.0646 45.4174 34.064 43.2066C34.0635 40.9957 34.9412 38.8752 36.5041 37.3115C38.067 35.7478 40.1871 34.869 42.3979 34.8685C43.4926 34.8682 44.5767 35.0835 45.5881 35.5022C46.5996 35.9209 47.5187 36.5347 48.293 37.3086C49.0673 38.0824 49.6815 39.0012 50.1007 40.0125C50.5199 41.0238 50.7358 42.1077 50.736 43.2024C50.7363 44.2971 50.521 45.3811 50.1023 46.3926C49.6836 47.4041 49.0698 48.3232 48.2959 49.0975C47.5221 49.8717 46.6033 50.486 45.592 50.9051ZM58.2987 33.4312H53.0028C52.5511 33.4312 52.1767 33.0593 52.1733 32.6042V27.3103C52.1733 27.0903 52.2607 26.8793 52.4162 26.7237C52.5718 26.5682 52.7828 26.4808 53.0028 26.4808H58.2986C58.5186 26.4808 58.7296 26.5682 58.8852 26.7237C59.0407 26.8793 59.1281 27.0903 59.1281 27.3103L59.1281 32.6045C59.1281 32.6048 59.1281 32.6051 59.1281 32.6054C59.1271 32.8246 59.0395 33.0345 58.8842 33.1892C58.7287 33.3442 58.5182 33.4312 58.2987 33.4312ZM12.7729 13.5773C20.6311 5.71914 31.2891 1.30446 42.4022 1.30446C47.9049 1.30446 53.3537 2.38829 58.4375 4.49408C63.5213 6.59986 68.1406 9.68635 72.0316 13.5773C75.9226 17.4683 79.0091 22.0876 81.1148 27.1714C83.2206 32.2552 84.3045 37.704 84.3045 43.2067C84.3045 48.7094 83.2206 54.1582 81.1148 59.242C79.0091 64.3258 75.9226 68.9451 72.0316 72.836C68.1406 76.727 63.5213 79.8135 58.4375 81.9193C53.3537 84.0251 47.9049 85.1089 42.4022 85.1089C31.2891 85.1089 20.6311 80.6942 12.7729 72.836C4.91469 64.9778 0.5 54.3199 0.5 43.2067C0.5 32.0935 4.91469 21.4355 12.7729 13.5773ZM59.5795 65.7912C62.5544 65.7912 64.9867 63.3589 64.9867 60.384V26.0294C64.9867 23.0545 62.5544 20.6222 59.5795 20.6222H25.2249C22.25 20.6222 19.8177 23.0545 19.8177 26.0294V60.384C19.8177 63.3589 22.25 65.7912 25.2249 65.7912H59.5795Z" fill="#FAF8F8" stroke="#FAF8F8"/>
</svg>
