<svg width="86" height="86" viewBox="0 0 86 86" fill="none" xmlns="http://www.w3.org/2000/svg">
<path d="M41.5733 34.1221C37.6634 33.8428 33.8462 32.7862 30.3462 31.0117C26.6583 29.142 23.405 26.5171 20.798 23.3077L20.3451 22.7503L19.9795 23.3684C19.0119 25.0045 18.4744 26.889 18.4744 28.9465V28.9468C18.4757 30.7673 18.9261 32.5594 19.7858 34.1641C20.3572 35.2308 21.0977 36.1928 21.975 37.0145C20.9686 36.7995 20.0168 36.4364 19.1632 35.9544L18.4174 35.5333V36.3898L18.4174 36.5219C18.4174 36.5222 18.4174 36.5226 18.4174 36.5229C18.4125 39.0755 19.2914 41.5511 20.9047 43.5293C22.0491 44.9323 23.5129 46.0238 25.1599 46.7212C24.3452 46.7623 23.5386 46.7059 22.6781 46.5801L21.8869 46.4644L22.1293 47.2264C23.3911 51.1921 26.8527 54.1766 31.0963 54.7835C27.7524 57.0724 23.7176 58.4006 19.3642 58.4006C18.5049 58.4006 17.7061 58.3633 16.8717 58.2705L16.5469 59.1886C21.3019 62.2329 26.9467 64.0016 33.0341 64.0016C52.7885 64.0016 63.5833 47.642 63.5833 33.4714V33.4631C63.5833 33.1013 63.5833 32.7213 63.568 32.3462C65.5873 30.8458 67.3476 28.9894 68.7632 26.9081L69.7353 25.479L68.1503 26.1684C66.9031 26.711 65.5914 27.1479 64.2378 27.444C65.6831 26.1532 66.775 24.492 67.3806 22.6169L67.785 21.3647L66.6511 22.0323C64.7382 23.1586 62.604 24.0082 60.3743 24.4587C58.3657 22.426 55.5781 21.1742 52.4934 21.1742C45.937 21.1742 40.4517 26.9183 41.5733 34.1221ZM0.5 42.5879C0.5 19.3456 19.3456 0.5 42.5879 0.5C65.8301 0.5 84.6758 19.3456 84.6758 42.5879C84.6758 65.8301 65.8301 84.6758 42.5879 84.6758C19.3456 84.6758 0.5 65.8301 0.5 42.5879Z" stroke="#FAF8F8"/>
</svg>
